<svg width="20" height="20" viewBox="0 0 20 20" fill="none" xmlns="http://www.w3.org/2000/svg">
<path d="M19.2108 13.9698H5.93468L6.60127 12.5355L17.677 12.5143C18.0515 12.5143 18.3725 12.2316 18.4394 11.8406L19.9732 2.77048C20.0134 2.5326 19.9532 2.28765 19.806 2.10159C19.7333 2.01001 19.6426 1.93625 19.5402 1.88541C19.4378 1.83457 19.3262 1.80788 19.213 1.80718L5.12318 1.75772L5.00279 1.15948C4.92699 0.777922 4.60149 0.5 4.23141 0.5H0.78698C0.57826 0.5 0.378089 0.587595 0.230501 0.743515C0.0829138 0.899435 0 1.11091 0 1.33141C0 1.55192 0.0829138 1.76339 0.230501 1.91931C0.378089 2.07523 0.57826 2.16282 0.78698 2.16282H3.5938L4.11994 4.80544L5.41523 11.4308L3.74763 14.3066C3.66103 14.4301 3.60887 14.5767 3.59705 14.7299C3.58523 14.8831 3.61422 15.0367 3.68075 15.1734C3.81451 15.4536 4.08427 15.6303 4.38301 15.6303H5.78308C5.4846 16.0491 5.32338 16.5592 5.32382 17.0835C5.32382 18.4166 6.34935 19.5 7.61119 19.5C8.87304 19.5 9.89856 18.4166 9.89856 17.0835C9.89856 16.5583 9.73359 16.0472 9.4393 15.6303H13.0309C12.7324 16.0491 12.5712 16.5592 12.5716 17.0835C12.5716 18.4166 13.5971 19.5 14.859 19.5C16.1208 19.5 17.1464 18.4166 17.1464 17.0835C17.1464 16.5583 16.9814 16.0472 16.6871 15.6303H19.213C19.6455 15.6303 20 15.2582 20 14.7989C19.9987 14.5786 19.915 14.3678 19.7671 14.2125C19.6193 14.0572 19.4193 13.9699 19.2108 13.9698ZM5.4509 3.39699L18.2878 3.44174L17.0304 10.8797L6.94683 10.8985L5.4509 3.39699ZM7.61119 17.8278C7.22328 17.8278 6.9067 17.4933 6.9067 17.0835C6.9067 16.6737 7.22328 16.3392 7.61119 16.3392C7.99911 16.3392 8.31568 16.6737 8.31568 17.0835C8.31568 17.2809 8.24146 17.4702 8.10934 17.6098C7.97723 17.7493 7.79803 17.8278 7.61119 17.8278ZM14.859 17.8278C14.4711 17.8278 14.1545 17.4933 14.1545 17.0835C14.1545 16.6737 14.4711 16.3392 14.859 16.3392C15.2469 16.3392 15.5635 16.6737 15.5635 17.0835C15.5635 17.2809 15.4893 17.4702 15.3571 17.6098C15.225 17.7493 15.0458 17.8278 14.859 17.8278Z" fill="currentColor"/>
</svg>
